<?xml version="1.0" encoding="UTF-8"?>
<svg xmlns="http://www.w3.org/2000/svg" xmlns:xlink="http://www.w3.org/1999/xlink" width="272px" height="264px" viewBox="0 0 272 264" version="1.1">
<g id="surface1">
<path style=" stroke:none;fill-rule:nonzero;fill:rgb(0%,0%,0%);fill-opacity:1;" d="M 67.214844 57.113281 C 63.140625 58.273438 59.890625 62.101562 59.445312 66.300781 L 59.21875 68.363281 L 57.054688 68.8125 C 54.4375 69.335938 52.230469 70.835938 50.589844 73.238281 C 49.132812 75.375 48.574219 77.101562 48.574219 79.648438 C 48.574219 82.648438 49.617188 85.3125 51.597656 87.335938 C 54.25 90.039062 55.558594 90.5625 59.820312 90.5625 C 63.21875 90.5625 63.480469 90.488281 65.386719 89.324219 C 66.46875 88.648438 67.476562 88.238281 67.589844 88.386719 C 67.703125 88.539062 69.496094 90.1875 71.550781 92.0625 C 73.605469 93.902344 77.378906 97.386719 79.957031 99.75 C 82.535156 102.152344 85.335938 104.773438 86.230469 105.5625 C 87.09375 106.351562 87.800781 107.136719 87.800781 107.324219 C 87.800781 107.476562 82.90625 107.625 76.929688 107.625 C 64.75 107.625 64.636719 107.664062 63.179688 110.25 C 62.171875 112.050781 62.171875 113.699219 63.21875 115.539062 C 64.5625 117.976562 65.386719 118.125 77.339844 118.125 L 87.800781 118.125 L 87.988281 118.949219 C 88.066406 119.4375 88.324219 120.898438 88.550781 122.175781 C 90.417969 133.164062 96.691406 143.136719 106.96875 151.574219 L 108.015625 152.4375 L 103.046875 156.9375 C 100.355469 159.414062 97.777344 161.773438 97.367188 162.1875 C 96.917969 162.601562 95.835938 163.613281 94.902344 164.398438 C 93.96875 165.1875 91.203125 167.738281 88.773438 170.023438 C 86.308594 172.3125 84.105469 174.148438 83.839844 174.148438 C 83.582031 174.113281 83.46875 174.339844 83.582031 174.601562 C 83.839844 175.273438 83.171875 175.273438 82.609375 174.601562 C 81.675781 173.476562 78.3125 172.386719 75.847656 172.386719 C 70.988281 172.386719 67.550781 174.636719 65.496094 179.136719 C 63.59375 183.261719 64.933594 189.300781 68.335938 191.960938 C 70.09375 193.351562 71.773438 194.175781 73.492188 194.550781 C 74.765625 194.8125 74.953125 195 75.25 196.3125 C 75.882812 199.351562 76.742188 201.226562 78.347656 202.914062 C 83.503906 208.460938 92.398438 207.375 96.285156 200.699219 C 97.101562 199.351562 97.332031 198.414062 97.441406 195.898438 C 97.59375 193.164062 97.519531 192.601562 96.582031 190.648438 L 95.609375 188.4375 L 98.898438 185.324219 C 100.691406 183.636719 102.972656 181.539062 103.980469 180.710938 L 105.738281 179.175781 L 105.738281 180.863281 C 105.738281 183.335938 106.746094 188.699219 107.792969 191.664062 C 111.636719 202.726562 122.214844 208.050781 138.800781 207.222656 C 152.140625 206.585938 160.285156 201.863281 163.910156 192.601562 C 164.992188 189.824219 166.261719 183.710938 166.261719 181.351562 C 166.261719 180.410156 166.414062 179.625 166.597656 179.625 C 166.898438 179.625 176.351562 188.210938 176.351562 188.511719 C 176.351562 188.585938 176.015625 189.335938 175.566406 190.199219 C 173.402344 194.476562 174.335938 200.175781 177.769531 203.476562 C 180.875 206.476562 186.628906 207.375 190.363281 205.425781 C 193.875 203.585938 196.152344 200.363281 196.675781 196.460938 C 196.9375 194.773438 196.976562 194.699219 198.359375 194.511719 C 201.609375 194.101562 204.972656 191.398438 206.539062 187.949219 C 208.371094 183.9375 207.101562 178.085938 203.773438 175.164062 C 200.039062 171.863281 194.0625 171.449219 190.027344 174.1875 L 188.605469 175.164062 L 186.703125 173.324219 C 185.617188 172.3125 183.414062 170.25 181.769531 168.75 C 180.125 167.25 177.769531 165.039062 176.535156 163.910156 C 175.308594 162.75 171.980469 159.710938 169.105469 157.125 L 163.945312 152.476562 L 165.179688 151.5 C 169.738281 148.125 175.792969 141 178.742188 135.675781 C 180.945312 131.664062 183 125.324219 183.972656 119.511719 L 184.238281 118.125 L 194.769531 118.125 C 206.578125 118.125 207.101562 118.011719 208.78125 115.5 C 210.351562 113.175781 209.492188 109.761719 206.914062 108.222656 C 206.09375 107.699219 204.335938 107.625 195.292969 107.625 C 189.425781 107.625 184.535156 107.476562 184.421875 107.324219 C 184.347656 107.175781 186.628906 104.851562 189.539062 102.1875 C 192.417969 99.488281 195.21875 96.898438 195.742188 96.375 C 196.265625 95.847656 198.394531 93.902344 200.449219 92.0625 C 202.503906 90.1875 204.296875 88.5 204.484375 88.3125 C 204.636719 88.085938 204.859375 88.085938 205.046875 88.386719 C 205.195312 88.648438 206.316406 89.289062 207.511719 89.851562 C 213.007812 92.363281 219.617188 90.074219 222.347656 84.636719 C 223.464844 82.460938 223.726562 78.675781 222.867188 76.164062 C 221.597656 72.261719 218.121094 69.226562 214.425781 68.738281 C 213.636719 68.625 212.96875 68.511719 212.96875 68.476562 C 212.96875 68.4375 212.78125 67.386719 212.554688 66.148438 C 211.769531 61.835938 208.820312 58.425781 204.785156 57.226562 C 200.636719 55.988281 197.273438 56.777344 194.175781 59.625 C 191.933594 61.6875 191.148438 63.039062 190.511719 65.925781 C 190.066406 68.136719 190.511719 71.023438 191.667969 73.3125 L 192.378906 74.738281 L 190.8125 76.273438 C 189.914062 77.136719 186.664062 80.136719 183.5625 82.949219 L 177.921875 88.085938 L 175.9375 85.199219 C 174.859375 83.625 173.140625 81.449219 172.128906 80.363281 C 171.121094 79.273438 170.039062 78.074219 169.773438 77.664062 C 168.730469 76.164062 161.855469 71.363281 157.820312 69.261719 C 150.308594 65.398438 143.175781 63.9375 133.945312 64.273438 C 126.285156 64.539062 121.203125 65.8125 114.332031 69.226562 C 107.195312 72.75 100.46875 78.601562 96.171875 85.011719 L 94.078125 88.125 L 91.765625 85.988281 C 90.527344 84.824219 87.464844 82.011719 85 79.726562 C 82.535156 77.4375 80.332031 75.375 80.066406 75.148438 C 79.730469 74.8125 79.804688 74.363281 80.441406 73.085938 C 81.527344 70.875 81.636719 65.027344 80.59375 62.964844 C 79.660156 61.050781 77.042969 58.539062 75.210938 57.675781 C 73.15625 56.777344 69.417969 56.511719 67.214844 57.113281 Z M 73.269531 59.324219 C 74.089844 59.550781 75.398438 60.335938 76.21875 61.050781 C 79.878906 64.164062 80.59375 69.152344 77.902344 73.125 L 76.667969 74.960938 L 82.835938 80.699219 C 86.230469 83.851562 89.933594 87.261719 91.015625 88.3125 L 93.070312 90.1875 L 91.953125 92.476562 C 90.640625 95.210938 89.480469 98.625 88.847656 101.664062 C 88.585938 102.898438 88.285156 103.875 88.140625 103.875 C 87.84375 103.875 85.558594 101.886719 80.703125 97.3125 C 78.164062 94.949219 70.464844 87.824219 68.597656 86.136719 C 67.253906 84.898438 67.214844 84.898438 66.09375 86.101562 C 63.964844 88.425781 59.109375 89.4375 56.527344 88.125 C 52.980469 86.324219 51.1875 83.773438 50.925781 80.0625 C 50.773438 78.148438 50.890625 77.511719 51.824219 75.75 C 53.539062 72.375 57.277344 70.164062 60.527344 70.613281 L 61.875 70.761719 L 61.722656 68.25 C 61.609375 66.148438 61.722656 65.476562 62.507812 63.863281 C 64.527344 59.886719 68.933594 58.011719 73.269531 59.324219 Z M 204.636719 59.4375 C 206.878906 60.375 208.445312 61.800781 209.457031 63.824219 C 210.277344 65.476562 210.390625 66.113281 210.277344 68.289062 L 210.125 70.875 L 211.472656 70.648438 C 214.761719 70.125 218.945312 72.710938 220.402344 76.164062 C 222.160156 80.25 220.8125 84.5625 216.929688 87.148438 C 214.945312 88.460938 214.539062 88.613281 212.257812 88.613281 C 209.566406 88.648438 208.746094 88.3125 206.351562 86.363281 C 205.457031 85.652344 204.558594 85.199219 204.335938 85.351562 C 204.109375 85.460938 202.988281 86.4375 201.871094 87.523438 C 200.714844 88.574219 199.554688 89.398438 199.292969 89.398438 C 198.992188 89.363281 198.878906 89.476562 198.992188 89.660156 C 199.101562 89.851562 198.0625 91.085938 196.636719 92.363281 C 195.257812 93.675781 191.859375 96.863281 189.128906 99.414062 C 186.363281 101.960938 184.011719 104.097656 183.859375 104.175781 C 183.75 104.214844 183.414062 103.199219 183.1875 101.886719 C 182.664062 99.1875 181.394531 95.324219 179.976562 92.210938 L 179.042969 90.113281 L 184.460938 85.085938 C 187.449219 82.3125 190.660156 79.347656 191.632812 78.449219 C 192.566406 77.550781 193.914062 76.386719 194.582031 75.863281 C 195.78125 74.925781 195.78125 74.886719 195.109375 74.210938 C 193.652344 72.898438 192.714844 70.835938 192.527344 68.664062 C 192.339844 66.824219 192.492188 66.113281 193.238281 64.425781 C 194.25 62.210938 196.417969 60.113281 198.433594 59.398438 C 200.226562 58.761719 203.027344 58.761719 204.636719 59.4375 Z M 144.855469 67.125 C 149.5625 68.0625 151.988281 68.925781 156.738281 71.25 C 164.878906 75.261719 172.800781 82.914062 176.574219 90.414062 L 177.847656 93 L 136 93 C 112.984375 93 94.152344 92.925781 94.152344 92.8125 C 94.152344 92.324219 97.332031 87.039062 98.714844 85.125 C 100.691406 82.5 105.625 77.585938 108.6875 75.222656 C 113.394531 71.585938 121.390625 68.101562 127.78125 66.898438 C 131.851562 66.148438 140.558594 66.261719 144.855469 67.125 Z M 203.738281 109.835938 C 206.988281 109.914062 208.519531 112.835938 206.425781 114.9375 L 205.53125 115.875 L 66.46875 115.875 L 65.574219 114.898438 C 64.449219 113.664062 64.375 112.164062 65.386719 110.886719 C 66.09375 109.988281 66.429688 109.914062 69.417969 109.800781 C 72.558594 109.6875 200.152344 109.726562 203.738281 109.835938 Z M 181.957031 118.273438 C 181.957031 119.324219 180.574219 125.101562 179.75 127.539062 C 171.90625 150.824219 146.984375 163.988281 123.40625 157.3125 C 119.894531 156.300781 112.085938 152.625 109.734375 150.863281 C 100.953125 144.335938 95.722656 137.363281 92.363281 127.800781 C 91.460938 125.289062 90.042969 119.398438 90.042969 118.273438 C 90.042969 118.199219 110.742188 118.125 136 118.125 C 161.292969 118.125 181.957031 118.199219 181.957031 118.273438 Z M 109.324219 156.261719 C 106.859375 161.101562 105.402344 167.511719 105.363281 173.476562 L 105.363281 176.175781 L 101.175781 180.113281 C 98.859375 182.25 95.945312 184.949219 94.714844 186.113281 L 92.472656 188.210938 L 93.332031 189.261719 C 95.722656 192.226562 96.132812 196.164062 94.339844 199.425781 C 93.03125 201.863281 91.351562 203.175781 88.660156 203.886719 C 85 204.824219 81.300781 203.511719 79.246094 200.511719 C 77.75 198.261719 77.230469 196.425781 77.527344 194.25 L 77.789062 192.375 L 76.03125 192.375 C 73.457031 192.375 71.585938 191.699219 69.90625 190.164062 C 67.738281 188.210938 66.878906 186.300781 66.878906 183.523438 C 66.878906 178.464844 70.953125 174.375 75.992188 174.375 C 77.824219 174.375 80.929688 175.761719 82.15625 177.113281 L 83.054688 178.125 L 85.894531 175.613281 C 87.464844 174.222656 89.746094 172.125 90.976562 170.960938 C 93.820312 168.300781 105.324219 157.800781 107.566406 155.8125 C 108.5 154.988281 109.363281 154.199219 109.398438 154.011719 C 109.472656 153.863281 109.769531 153.75 110.070312 153.75 C 110.480469 153.75 110.257812 154.425781 109.324219 156.261719 Z M 166.078125 157.3125 C 173.550781 164.175781 175.121094 165.636719 178.40625 168.5625 C 181.472656 171.300781 183 172.726562 187.371094 176.738281 L 188.867188 178.085938 L 189.988281 177 C 194.324219 172.800781 200.933594 173.8125 204.074219 179.175781 C 205.980469 182.398438 205.230469 187.425781 202.429688 190.011719 C 201.011719 191.363281 198.359375 192.375 196.230469 192.375 L 194.25 192.375 L 194.472656 194.136719 C 194.734375 196.199219 193.914062 199.386719 193.203125 199.199219 C 192.9375 199.164062 192.828125 199.273438 192.976562 199.5 C 193.3125 200.023438 191.707031 202.011719 190.25 202.875 C 185.769531 205.539062 180.3125 204.113281 177.808594 199.6875 C 175.9375 196.3125 176.089844 193.011719 178.257812 189.789062 L 179.417969 188.101562 L 177.175781 186 C 175.9375 184.875 173.066406 182.25 170.824219 180.1875 L 166.75 176.476562 L 166.527344 171.9375 C 166.300781 166.875 165.21875 161.964844 163.273438 157.460938 C 162.636719 155.925781 162.007812 154.460938 161.890625 154.164062 C 161.480469 153.226562 162.378906 153.898438 166.078125 157.3125 Z M 114.253906 156.148438 C 115.226562 156.601562 117.242188 157.5 118.773438 158.0625 L 121.503906 159.148438 L 121.28125 160.835938 C 121.164062 161.8125 120.980469 163.875 120.828125 165.449219 C 120.683594 167.0625 120.457031 168.375 120.308594 168.375 C 118.8125 168.375 111.601562 164.925781 109.957031 163.425781 C 109.175781 162.675781 109.175781 162.675781 109.847656 160.761719 C 110.519531 158.773438 112.125 155.25 112.347656 155.25 C 112.425781 155.25 113.285156 155.660156 114.253906 156.148438 Z M 161.109375 158.136719 C 163.164062 162.636719 163.164062 162.414062 161.144531 163.949219 C 160.136719 164.664062 158.605469 165.675781 157.667969 166.125 C 156.101562 166.914062 152.253906 168.375 151.691406 168.375 C 151.542969 168.375 151.316406 167.0625 151.207031 165.449219 C 151.054688 163.875 150.871094 161.8125 150.71875 160.875 L 150.496094 159.148438 L 153.972656 157.761719 C 155.914062 156.976562 157.898438 156.113281 158.417969 155.8125 C 158.9375 155.511719 159.460938 155.289062 159.574219 155.25 C 159.6875 155.25 160.398438 156.5625 161.109375 158.136719 Z M 126.546875 160.273438 C 127.96875 160.574219 130.394531 160.949219 132 161.101562 L 134.878906 161.363281 L 134.878906 170.136719 L 132 169.988281 C 129.011719 169.835938 122.847656 169.164062 122.625 168.976562 C 122.363281 168.710938 123.558594 159.75 123.859375 159.75 C 123.933594 159.75 125.125 159.976562 126.546875 160.273438 Z M 148.480469 160.949219 C 148.816406 162.976562 149.449219 168.863281 149.339844 168.976562 C 149.1875 169.125 143.433594 169.800781 140.222656 170.0625 L 137.121094 170.289062 L 137.121094 161.363281 L 140.035156 161.101562 C 141.605469 160.949219 143.921875 160.613281 145.152344 160.351562 C 148.332031 159.636719 148.292969 159.636719 148.480469 160.949219 Z M 113.917969 168.375 C 115.078125 168.9375 116.984375 169.648438 118.140625 170.023438 C 120.011719 170.585938 120.269531 170.8125 120.160156 171.488281 C 120.046875 171.9375 119.859375 173.585938 119.746094 175.125 C 119.636719 176.664062 119.410156 178.574219 119.296875 179.324219 L 119.109375 180.710938 L 117.28125 180.039062 C 114.59375 178.988281 110.707031 176.699219 108.988281 175.164062 L 107.492188 173.8125 L 107.753906 170.4375 C 107.867188 168.601562 108.089844 166.613281 108.203125 166.050781 L 108.425781 165.039062 L 110.144531 166.199219 C 111.078125 166.835938 112.796875 167.8125 113.917969 168.375 Z M 164.285156 170.363281 C 164.472656 173.25 164.433594 173.738281 163.796875 174.414062 C 162.117188 176.285156 155.054688 180.375 153.523438 180.375 C 152.851562 180.375 152.664062 179.511719 152.253906 174.75 C 152.105469 173.398438 151.953125 171.9375 151.839844 171.488281 C 151.730469 170.773438 151.953125 170.585938 153.785156 170.0625 C 156.363281 169.3125 160.882812 167.136719 162.378906 165.9375 L 163.464844 165.074219 L 163.761719 166.050781 C 163.910156 166.613281 164.132812 168.523438 164.285156 170.363281 Z M 150.121094 175.574219 C 150.386719 178.125 150.574219 180.449219 150.574219 180.789062 C 150.574219 181.539062 147.394531 182.101562 141.339844 182.472656 L 137.121094 182.738281 L 137.121094 172.125 L 140.40625 172.085938 C 142.953125 172.085938 146.984375 171.601562 149.488281 171.039062 C 149.597656 171.039062 149.859375 173.0625 150.121094 175.574219 Z M 126.847656 171.75 C 128.304688 171.9375 130.691406 172.125 132.1875 172.160156 L 134.878906 172.238281 L 134.878906 182.738281 L 130.730469 182.511719 C 125.460938 182.210938 121.800781 181.574219 121.539062 180.898438 C 121.425781 180.601562 121.578125 178.347656 121.800781 175.875 C 122.363281 170.699219 121.878906 171.074219 126.847656 171.75 Z M 113.433594 180.710938 C 118.925781 183.414062 126.808594 184.875 136 184.875 C 147.285156 184.875 155.503906 182.960938 161.707031 178.875 L 164.394531 177.074219 L 164.394531 178.125 C 164.394531 180.449219 163.234375 187.835938 162.566406 189.789062 C 159.5 198.710938 153.335938 203.363281 142.613281 204.75 C 136.484375 205.539062 128.304688 205.050781 123.667969 203.585938 C 120.792969 202.6875 116.835938 200.585938 115.300781 199.199219 C 113.285156 197.324219 111.007812 193.875 109.921875 190.949219 C 108.800781 188.023438 108.238281 185.210938 107.753906 179.851562 L 107.492188 176.851562 L 109.363281 178.238281 C 110.40625 178.988281 112.234375 180.113281 113.433594 180.710938 Z M 113.433594 180.710938 "/>
<path style=" stroke:none;fill-rule:nonzero;fill:rgb(0%,0%,0%);fill-opacity:1;" d="M 111.675781 79.273438 C 109.175781 81.335938 106.59375 84.1875 104.84375 86.773438 C 103.71875 88.460938 103.683594 88.648438 104.464844 89.398438 C 105.472656 90.414062 106.335938 90.074219 107.902344 88.011719 C 109.511719 85.875 113.992188 81.261719 115.375 80.363281 C 116.71875 79.425781 116.273438 77.25 114.703125 77.25 C 114.367188 77.25 113.023438 78.148438 111.675781 79.273438 Z M 111.675781 79.273438 "/>
<path style=" stroke:none;fill-rule:nonzero;fill:rgb(0%,0%,0%);fill-opacity:1;" d="M 162.007812 80.476562 C 161.03125 81.449219 161.292969 82.238281 163.273438 84.1875 C 164.320312 85.238281 165.816406 87 166.5625 88.125 C 168.46875 90.976562 168.730469 91.199219 169.890625 91.050781 C 171.195312 90.898438 171.496094 89.398438 170.484375 87.863281 C 169.402344 86.136719 165.066406 81.226562 164.0625 80.550781 C 162.863281 79.726562 162.714844 79.726562 162.007812 80.476562 Z M 162.007812 80.476562 "/>
<path style=" stroke:none;fill-rule:nonzero;fill:rgb(0%,0%,0%);fill-opacity:1;" d="M 116.421875 82.835938 C 113.207031 86.101562 111.675781 88.460938 111.789062 89.8125 C 111.863281 90.710938 112.085938 90.976562 112.910156 91.050781 C 113.769531 91.164062 114.179688 90.789062 115.933594 88.425781 C 117.019531 86.925781 118.550781 85.085938 119.296875 84.300781 C 120.828125 82.800781 121.054688 81.601562 119.972656 81 C 118.8125 80.398438 118.664062 80.476562 116.421875 82.835938 Z M 116.421875 82.835938 "/>
<path style=" stroke:none;fill-rule:nonzero;fill:rgb(0%,0%,0%);fill-opacity:1;" d="M 153.261719 82.574219 C 152.476562 83.363281 152.773438 84.261719 154.308594 86.0625 C 155.128906 87.039062 156.066406 88.273438 156.324219 88.800781 C 157.183594 90.449219 158.269531 91.238281 159.351562 90.976562 C 160.882812 90.601562 160.582031 89.023438 158.378906 86.0625 C 155.578125 82.3125 154.382812 81.449219 153.261719 82.574219 Z M 153.261719 82.574219 "/>
<path style=" stroke:none;fill-rule:nonzero;fill:rgb(0%,0%,0%);fill-opacity:1;" d="M 123.035156 85.199219 C 119.785156 88.726562 119.039062 90.898438 120.945312 91.351562 C 121.988281 91.613281 122.847656 90.863281 125.574219 87.226562 C 126.847656 85.535156 126.847656 85.386719 126.0625 84.601562 C 125.164062 83.699219 124.308594 83.886719 123.035156 85.199219 Z M 123.035156 85.199219 "/>
<path style=" stroke:none;fill-rule:nonzero;fill:rgb(0%,0%,0%);fill-opacity:1;" d="M 115 120.863281 C 111.601562 121.835938 108.425781 124.574219 106.898438 127.835938 C 105.585938 130.648438 105.511719 135.710938 106.746094 138.449219 C 109.546875 144.675781 116.90625 147.636719 123.40625 145.164062 C 128.378906 143.25 131.40625 138.226562 131.066406 132.449219 C 130.84375 128.773438 129.945312 126.675781 127.40625 124.199219 C 124.308594 121.125 119.074219 119.738281 115 120.863281 Z M 115 120.863281 "/>
<path style=" stroke:none;fill-rule:nonzero;fill:rgb(0%,0%,0%);fill-opacity:1;" d="M 152.292969 120.976562 C 149 121.761719 145.527344 124.6875 144.070312 127.875 C 143.433594 129.226562 143.285156 130.3125 143.285156 133.3125 C 143.285156 137.8125 144.070312 139.800781 146.945312 142.574219 C 150.347656 145.835938 155.316406 146.886719 160.0625 145.3125 C 162.824219 144.449219 166.226562 141.261719 167.386719 138.523438 C 170.558594 131.136719 166.636719 122.925781 158.976562 120.9375 C 156.324219 120.261719 155.203125 120.261719 152.292969 120.976562 Z M 152.292969 120.976562 "/>
<path style=" stroke:none;fill-rule:nonzero;fill:rgb(0%,0%,0%);fill-opacity:1;" d="M 134.429688 147.375 C 128.75 148.386719 130.285156 153.75 136.261719 153.75 C 138.351562 153.75 140.296875 152.738281 140.933594 151.3125 C 142.054688 148.800781 138.503906 146.625 134.429688 147.375 Z M 134.429688 147.375 "/>
</g>
</svg>
